# Blender v2.79 (sub 0) OBJ File: 'soba.blend'
# www.blender.org
mtllib room_canal_4_holes.mtl
o soba_kanal.003_Cube.015
v -35.514626 6.896583 20.017159
v -35.514626 10.547717 20.017159
v -35.514626 6.896583 15.505959
v -35.514626 10.547717 15.505959
v -31.003418 6.896583 20.017159
v -31.003418 10.547717 20.017159
v -31.003418 6.896583 15.505959
v -31.003418 10.547717 15.505959
v -35.514626 8.146268 19.746090
v -35.514626 7.962588 19.708473
v -35.514626 7.788560 19.647840
v -35.514626 7.625803 19.565882
v -35.514626 7.475937 19.464283
v -35.514626 7.340582 19.344732
v -35.514626 7.221358 19.208916
v -35.514626 7.119884 19.058521
v -35.514626 7.037782 18.895237
v -35.514626 6.976667 18.720749
v -35.514626 6.938163 18.536745
v -35.514626 6.923887 18.344915
v -35.514626 6.923564 18.290462
v -35.514626 6.923300 18.214638
v -35.514626 6.923095 18.121492
v -35.514626 6.922948 18.015085
v -35.514626 6.922860 17.899471
v -35.514626 6.922832 17.778706
v -35.514626 6.922860 17.656847
v -35.514626 6.922948 17.537949
v -35.514626 6.923095 17.426067
v -35.514626 6.923300 17.325260
v -35.514626 6.923564 17.239582
v -35.514626 6.923887 17.173088
v -35.514626 6.937840 16.981255
v -35.514626 6.976135 16.797249
v -35.514626 7.037134 16.622761
v -35.514626 7.119203 16.459476
v -35.514626 7.220706 16.309082
v -35.514626 7.340008 16.173265
v -35.514626 7.475471 16.053715
v -35.514626 7.625462 15.952118
v -35.514626 7.788344 15.870160
v -35.514626 7.962481 15.809530
v -35.514626 8.146239 15.771915
v -35.514626 8.337981 15.759002
v -35.514626 8.609303 15.777267
v -35.514626 8.869550 15.830466
v -35.514626 9.116337 15.916218
v -35.514626 9.347279 16.032131
v -35.514626 9.559986 16.175825
v -35.514626 9.752075 16.344910
v -35.514626 9.921160 16.536999
v -35.514626 10.064854 16.749706
v -35.514626 10.180766 16.980646
v -35.514626 10.266518 17.227434
v -35.514626 10.319717 17.487682
v -35.514626 10.337982 17.759003
v -35.514626 10.319718 18.030323
v -35.514626 10.266518 18.290569
v -35.514626 10.180766 18.537357
v -35.514626 10.064854 18.768299
v -35.514626 9.921160 18.981007
v -35.514626 9.752075 19.173096
v -35.514626 9.559986 19.342178
v -35.514626 9.347279 19.485872
v -35.514626 9.116337 19.601786
v -35.514626 8.869550 19.687538
v -35.514626 8.609303 19.740738
v -35.514626 8.337981 19.759001
v -31.003399 8.146268 19.746090
v -31.003399 7.962588 19.708473
v -31.003399 7.788560 19.647840
v -31.003399 7.625803 19.565882
v -31.003399 7.475937 19.464283
v -31.003399 7.340582 19.344732
v -31.003399 7.221358 19.208916
v -31.003399 7.119884 19.058521
v -31.003399 7.037782 18.895237
v -31.003399 6.976667 18.720749
v -31.003399 6.938163 18.536745
v -31.003399 6.923887 18.344915
v -31.003399 6.923564 18.290462
v -31.003399 6.923300 18.214638
v -31.003399 6.923095 18.121492
v -31.003399 6.922948 18.015085
v -31.003399 6.922860 17.899471
v -31.003399 6.922832 17.778706
v -31.003399 6.922860 17.656847
v -31.003399 6.922948 17.537949
v -31.003399 6.923095 17.426067
v -31.003399 6.923300 17.325260
v -31.003399 6.923564 17.239582
v -31.003399 6.923887 17.173088
v -31.003399 6.937840 16.981255
v -31.003399 6.976135 16.797249
v -31.003399 7.037134 16.622761
v -31.003399 7.119203 16.459476
v -31.003399 7.220706 16.309082
v -31.003399 7.340008 16.173265
v -31.003399 7.475471 16.053715
v -31.003399 7.625462 15.952118
v -31.003399 7.788344 15.870160
v -31.003399 7.962481 15.809530
v -31.003399 8.146239 15.771915
v -31.003399 8.337981 15.759002
v -31.003399 8.609303 15.777267
v -31.003399 8.869550 15.830466
v -31.003399 9.116337 15.916218
v -31.003399 9.347279 16.032131
v -31.003399 9.559986 16.175825
v -31.003399 9.752075 16.344910
v -31.003399 9.921160 16.536999
v -31.003399 10.064854 16.749706
v -31.003399 10.180766 16.980646
v -31.003399 10.266518 17.227434
v -31.003399 10.319717 17.487682
v -31.003399 10.337982 17.759003
v -31.003399 10.319718 18.030323
v -31.003399 10.266518 18.290569
v -31.003399 10.180766 18.537357
v -31.003399 10.064854 18.768299
v -31.003399 9.921160 18.981007
v -31.003399 9.752075 19.173096
v -31.003399 9.559986 19.342178
v -31.003399 9.347279 19.485872
v -31.003399 9.116337 19.601786
v -31.003399 8.869550 19.687538
v -31.003399 8.609303 19.740738
v -31.003399 8.337981 19.759001
v -31.274494 8.146269 15.505959
v -31.312111 7.962588 15.505959
v -31.372744 7.788561 15.505959
v -31.454702 7.625803 15.505959
v -31.556301 7.475937 15.505959
v -31.675852 7.340582 15.505959
v -31.811668 7.221358 15.505959
v -31.962063 7.119885 15.505959
v -32.125347 7.037782 15.505959
v -32.299835 6.976667 15.505959
v -32.483837 6.938163 15.505959
v -32.675671 6.923887 15.505959
v -32.730122 6.923564 15.505959
v -32.805946 6.923300 15.505959
v -32.899094 6.923095 15.505959
v -33.005501 6.922948 15.505959
v -33.121113 6.922860 15.505959
v -33.241879 6.922832 15.505959
v -33.363735 6.922860 15.505959
v -33.482635 6.922948 15.505959
v -33.594517 6.923095 15.505959
v -33.695324 6.923300 15.505959
v -33.781002 6.923564 15.505959
v -33.847496 6.923887 15.505959
v -34.039330 6.937840 15.505959
v -34.223335 6.976135 15.505959
v -34.397823 7.037134 15.505959
v -34.561108 7.119204 15.505959
v -34.711502 7.220706 15.505959
v -34.847317 7.340008 15.505959
v -34.966869 7.475471 15.505959
v -35.068466 7.625462 15.505959
v -35.150425 7.788344 15.505959
v -35.211056 7.962482 15.505959
v -35.248669 8.146239 15.505959
v -35.261581 8.337981 15.505959
v -35.243317 8.609303 15.505959
v -35.190117 8.869550 15.505959
v -35.104366 9.116337 15.505959
v -34.988453 9.347279 15.505959
v -34.844761 9.559986 15.505959
v -34.675674 9.752075 15.505959
v -34.483585 9.921160 15.505959
v -34.270878 10.064854 15.505959
v -34.039936 10.180766 15.505959
v -33.793152 10.266518 15.505959
v -33.532902 10.319717 15.505959
v -33.261581 10.337982 15.505959
v -32.990261 10.319718 15.505959
v -32.730015 10.266518 15.505959
v -32.483227 10.180766 15.505959
v -32.252285 10.064854 15.505959
v -32.039577 9.921160 15.505959
v -31.847488 9.752075 15.505959
v -31.678406 9.559986 15.505959
v -31.534712 9.347279 15.505959
v -31.418798 9.116337 15.505959
v -31.333046 8.869550 15.505959
v -31.279846 8.609303 15.505959
v -31.261583 8.337981 15.505959
v -35.243557 8.146269 20.017159
v -35.205940 7.962588 20.017159
v -35.145309 7.788561 20.017159
v -35.063351 7.625803 20.017159
v -34.961750 7.475937 20.017159
v -34.842197 7.340582 20.017159
v -34.706383 7.221358 20.017159
v -34.555988 7.119885 20.017159
v -34.392704 7.037782 20.017159
v -34.218216 6.976667 20.017159
v -34.034214 6.938163 20.017159
v -33.842381 6.923887 20.017159
v -33.787930 6.923564 20.017159
v -33.712105 6.923300 20.017159
v -33.618958 6.923095 20.017159
v -33.512550 6.922948 20.017159
v -33.396938 6.922860 20.017159
v -33.276173 6.922832 20.017159
v -33.154316 6.922860 20.017159
v -33.035416 6.922948 20.017159
v -32.923534 6.923095 20.017159
v -32.822727 6.923300 20.017159
v -32.737049 6.923564 20.017159
v -32.670555 6.923887 20.017159
v -32.478722 6.937840 20.017159
v -32.294716 6.976135 20.017159
v -32.120228 7.037134 20.017159
v -31.956944 7.119204 20.017159
v -31.806549 7.220706 20.017159
v -31.670732 7.340008 20.017159
v -31.551182 7.475471 20.017159
v -31.449585 7.625462 20.017159
v -31.367628 7.788344 20.017159
v -31.306997 7.962482 20.017159
v -31.269382 8.146239 20.017159
v -31.256470 8.337981 20.017159
v -31.274734 8.609303 20.017159
v -31.327934 8.869550 20.017159
v -31.413685 9.116337 20.017159
v -31.529598 9.347279 20.017159
v -31.673292 9.559986 20.017159
v -31.842377 9.752075 20.017159
v -32.034466 9.921160 20.017159
v -32.247173 10.064854 20.017159
v -32.478115 10.180766 20.017159
v -32.724899 10.266518 20.017159
v -32.985149 10.319717 20.017159
v -33.256470 10.337982 20.017159
v -33.527790 10.319718 20.017159
v -33.788036 10.266518 20.017159
v -34.034824 10.180766 20.017159
v -34.265766 10.064854 20.017159
v -34.478474 9.921160 20.017159
v -34.670563 9.752075 20.017159
v -34.839645 9.559986 20.017159
v -34.983337 9.347279 20.017159
v -35.099255 9.116337 20.017159
v -35.185005 8.869550 20.017159
v -35.238205 8.609303 20.017159
v -35.256470 8.337981 20.017159
vt 0.500543 -0.043281
vt 0.558125 -0.048070
vt 0.978709 0.011717
vt -0.945701 1.945701
vt 0.011717 0.988283
vt 0.011717 1.945701
vt 1.945701 0.011717
vt 0.988283 -0.945701
vt 1.945701 -0.945701
vt 0.496361 -0.938818
vt 0.470731 -0.938811
vt 0.021291 -0.945701
vt 0.021291 0.011717
vt 0.978709 0.011717
vt 0.500543 -0.043281
vt 0.496361 -0.938818
vt 0.522223 -0.938811
vt 0.978709 -0.945701
vt 0.021291 0.011717
vt 0.500543 -0.043281
vt 0.496361 -0.938818
vt 0.522223 -0.938811
vt 0.978709 -0.945701
vt 0.021291 0.011717
vt 0.978709 0.011717
vt 0.500543 -0.043281
vt 0.496361 -0.938818
vt 0.522223 -0.938811
vt 0.978709 -0.945701
vt 0.076080 -0.567731
vt 0.079956 -0.496583
vt 0.925005 -0.567731
vt 0.921129 -0.496584
vt 0.091247 -0.428340
vt 0.109446 -0.363627
vt 0.909838 -0.428340
vt 0.891639 -0.363627
vt 0.134047 -0.303068
vt 0.164543 -0.247291
vt 0.867039 -0.303068
vt 0.836543 -0.247291
vt 0.200428 -0.196920
vt 0.241195 -0.152582
vt 0.800658 -0.196920
vt 0.759890 -0.152582
vt 0.286338 -0.114902
vt 0.335351 -0.084507
vt 0.714747 -0.114902
vt 0.665734 -0.084507
vt 0.387727 -0.062020
vt 0.442960 -0.048070
vt 0.613358 -0.062020
vt -0.945701 0.988284
vt 0.988283 0.011716
vt 0.078820 -0.618003
vt 0.922265 -0.618010
vt 0.914282 -0.666196
vt 0.086804 -0.666168
vt 0.099672 -0.711802
vt 0.901414 -0.711859
vt 0.884020 -0.754571
vt 0.117066 -0.754482
vt 0.138628 -0.793780
vt 0.862458 -0.793902
vt 0.837085 -0.829424
vt 0.164001 -0.829274
vt 0.192826 -0.860537
vt 0.808261 -0.860708
vt 0.776343 -0.887325
vt 0.224744 -0.887146
vt 0.259398 -0.908675
vt 0.741689 -0.908845
vt 0.704657 -0.924841
vt 0.296430 -0.924701
vt 0.335481 -0.934798
vt 0.665605 -0.934883
vt 0.624892 -0.938541
vt 0.376194 -0.938541
vt 0.387750 -0.938626
vt 0.610780 -0.938626
vt 0.592596 -0.938695
vt 0.403843 -0.938695
vt 0.423611 -0.938749
vt 0.571202 -0.938749
vt 0.547457 -0.938788
vt 0.446194 -0.938788
vt 0.522223 -0.938811
vt 0.076080 -0.567731
vt 0.021291 -0.945701
vt 0.925005 -0.567731
vt 0.921129 -0.496584
vt 0.079956 -0.496583
vt 0.091247 -0.428340
vt 0.909838 -0.428340
vt 0.891639 -0.363627
vt 0.109446 -0.363627
vt 0.134047 -0.303068
vt 0.867039 -0.303068
vt 0.836543 -0.247291
vt 0.164543 -0.247291
vt 0.200428 -0.196920
vt 0.800658 -0.196920
vt 0.759890 -0.152582
vt 0.241195 -0.152582
vt 0.286338 -0.114902
vt 0.714747 -0.114902
vt 0.665734 -0.084507
vt 0.335351 -0.084507
vt 0.387727 -0.062020
vt 0.613358 -0.062020
vt 0.558125 -0.048070
vt 0.442960 -0.048070
vt 0.922265 -0.618010
vt 0.078820 -0.618003
vt 0.086804 -0.666168
vt 0.914282 -0.666196
vt 0.901414 -0.711859
vt 0.099672 -0.711802
vt 0.117066 -0.754482
vt 0.884020 -0.754571
vt 0.862458 -0.793902
vt 0.138628 -0.793780
vt 0.164001 -0.829274
vt 0.837085 -0.829424
vt 0.808261 -0.860708
vt 0.192826 -0.860537
vt 0.224744 -0.887146
vt 0.776343 -0.887325
vt 0.741689 -0.908845
vt 0.259398 -0.908675
vt 0.296430 -0.924701
vt 0.704657 -0.924841
vt 0.665605 -0.934883
vt 0.335481 -0.934798
vt 0.376194 -0.938541
vt 0.624892 -0.938541
vt 0.610780 -0.938626
vt 0.387750 -0.938626
vt 0.403843 -0.938695
vt 0.592596 -0.938695
vt 0.571202 -0.938749
vt 0.423611 -0.938749
vt 0.446194 -0.938788
vt 0.547457 -0.938788
vt 0.470731 -0.938811
vt 0.076080 -0.567731
vt 0.021291 -0.945701
vt 0.925005 -0.567731
vt 0.921129 -0.496584
vt 0.079956 -0.496583
vt 0.091247 -0.428340
vt 0.909838 -0.428340
vt 0.891639 -0.363627
vt 0.109446 -0.363627
vt 0.134047 -0.303068
vt 0.867039 -0.303068
vt 0.836543 -0.247291
vt 0.164543 -0.247291
vt 0.200428 -0.196920
vt 0.800658 -0.196920
vt 0.759890 -0.152582
vt 0.241195 -0.152582
vt 0.286338 -0.114902
vt 0.714747 -0.114902
vt 0.665734 -0.084507
vt 0.335351 -0.084507
vt 0.387727 -0.062020
vt 0.613358 -0.062020
vt 0.558125 -0.048070
vt 0.442960 -0.048070
vt 0.922265 -0.618010
vt 0.078820 -0.618003
vt 0.086804 -0.666168
vt 0.914282 -0.666196
vt 0.901414 -0.711859
vt 0.099672 -0.711802
vt 0.117066 -0.754482
vt 0.884020 -0.754571
vt 0.862458 -0.793902
vt 0.138628 -0.793780
vt 0.164001 -0.829274
vt 0.837085 -0.829424
vt 0.808261 -0.860708
vt 0.192826 -0.860537
vt 0.224744 -0.887146
vt 0.776343 -0.887325
vt 0.741689 -0.908845
vt 0.259398 -0.908675
vt 0.296430 -0.924701
vt 0.704657 -0.924841
vt 0.665605 -0.934883
vt 0.335481 -0.934798
vt 0.376194 -0.938541
vt 0.624892 -0.938541
vt 0.610780 -0.938626
vt 0.387750 -0.938626
vt 0.403843 -0.938695
vt 0.592596 -0.938695
vt 0.571202 -0.938749
vt 0.423611 -0.938749
vt 0.446194 -0.938788
vt 0.547457 -0.938788
vt 0.470731 -0.938811
vt 0.076080 -0.567731
vt 0.925005 -0.567731
vt 0.921129 -0.496584
vt 0.079956 -0.496583
vt 0.091247 -0.428340
vt 0.909838 -0.428340
vt 0.891639 -0.363627
vt 0.109446 -0.363627
vt 0.134047 -0.303068
vt 0.867039 -0.303068
vt 0.836543 -0.247291
vt 0.164543 -0.247291
vt 0.200428 -0.196920
vt 0.800658 -0.196920
vt 0.759890 -0.152582
vt 0.241195 -0.152582
vt 0.286338 -0.114902
vt 0.714747 -0.114902
vt 0.665734 -0.084507
vt 0.335351 -0.084507
vt 0.387727 -0.062020
vt 0.613358 -0.062020
vt 0.558125 -0.048070
vt 0.442960 -0.048070
vt 0.922265 -0.618010
vt 0.078820 -0.618003
vt 0.086804 -0.666168
vt 0.914282 -0.666196
vt 0.901414 -0.711859
vt 0.099672 -0.711802
vt 0.117066 -0.754482
vt 0.884020 -0.754571
vt 0.862458 -0.793902
vt 0.138628 -0.793780
vt 0.164001 -0.829274
vt 0.837085 -0.829424
vt 0.808261 -0.860708
vt 0.192826 -0.860537
vt 0.224744 -0.887146
vt 0.776343 -0.887325
vt 0.741689 -0.908845
vt 0.259398 -0.908675
vt 0.296430 -0.924701
vt 0.704657 -0.924841
vt 0.665605 -0.934883
vt 0.335481 -0.934798
vt 0.376194 -0.938541
vt 0.624892 -0.938541
vt 0.610780 -0.938626
vt 0.387750 -0.938626
vt 0.403843 -0.938695
vt 0.592596 -0.938695
vt 0.571202 -0.938749
vt 0.423611 -0.938749
vt 0.446194 -0.938788
vt 0.547457 -0.938788
vt 0.470731 -0.938811
vn 1.0000 0.0000 0.0000
vn 0.0000 1.0000 0.0000
vn 0.0000 -1.0000 0.0000
vn -1.0000 -0.0001 0.0000
vn -1.0000 0.0000 0.0000
vn 0.0000 0.0000 1.0000
vn 0.0000 0.0000 -1.0000
vn 1.0000 0.0001 0.0000
vn 1.0000 -0.0001 0.0000
vn 1.0000 0.0014 0.0000
vn 1.0000 -0.0014 0.0000
vn 1.0000 0.0030 0.0000
vn 1.0000 -0.0053 0.0000
vn 1.0000 -0.0012 0.0000
vn 1.0000 0.0010 0.0000
vn 1.0000 -0.0009 0.0000
vn 1.0000 0.0023 0.0000
vn -1.0000 0.0000 -0.0001
vn -1.0000 0.0000 0.0001
vn -1.0000 0.0001 0.0000
vn -1.0000 0.0003 -0.0000
vn -1.0000 0.0008 0.0000
vn -1.0000 0.0013 -0.0000
vn -1.0000 0.0028 0.0000
vn -1.0000 -0.0013 -0.0000
vn -1.0000 0.0005 -0.0000
vn -1.0000 0.0023 0.0000
vn -1.0000 0.0035 -0.0000
vn -1.0000 0.0009 -0.0000
usemtl Material.004
s off
f 56/1/1 55/2/1 4/3/1
f 1/4/2 7/5/2 3/6/2
f 6/7/3 4/8/3 8/9/3
f 26/10/1 25/11/1 1/12/1
f 6/13/4 8/14/4 116/15/4
f 86/16/5 87/17/5 7/18/5
f 8/19/6 4/3/6 176/20/6
f 146/21/6 147/22/6 3/23/6
f 2/24/7 6/25/7 236/26/7
f 206/27/7 207/28/7 5/29/7
f 2/24/1 1/12/1 68/30/1
f 2/24/1 68/30/1 67/31/1
f 44/32/1 3/23/1 4/3/1
f 45/33/1 44/32/1 4/3/1
f 2/24/1 67/31/1 66/34/1
f 2/24/1 66/34/1 65/35/1
f 46/36/1 45/33/1 4/3/1
f 47/37/1 46/36/1 4/3/1
f 2/24/1 65/35/1 64/38/1
f 2/24/1 64/38/1 63/39/1
f 48/40/1 47/37/1 4/3/1
f 49/41/1 48/40/1 4/3/1
f 2/24/1 63/39/1 62/42/1
f 2/24/1 62/42/1 61/43/1
f 50/44/1 49/41/1 4/3/1
f 51/45/1 50/44/1 4/3/1
f 2/24/1 61/43/1 60/46/1
f 2/24/1 60/46/1 59/47/1
f 52/48/1 51/45/1 4/3/1
f 53/49/1 52/48/1 4/3/1
f 2/24/1 59/47/1 58/50/1
f 2/24/8 58/50/8 57/51/8
f 54/52/1 53/49/1 4/3/1
f 55/2/1 54/52/1 4/3/1
f 4/3/1 2/24/1 56/1/1
f 2/24/9 57/51/9 56/1/9
f 1/4/2 5/53/2 7/5/2
f 6/7/3 2/54/3 4/8/3
f 9/55/1 68/30/1 1/12/1
f 3/23/1 44/32/1 43/56/1
f 3/23/1 43/56/1 42/57/1
f 10/58/1 9/55/1 1/12/1
f 11/59/1 10/58/1 1/12/1
f 3/23/1 42/57/1 41/60/1
f 3/23/1 41/60/1 40/61/1
f 12/62/1 11/59/1 1/12/1
f 13/63/1 12/62/1 1/12/1
f 3/23/1 40/61/1 39/64/1
f 3/23/1 39/64/1 38/65/1
f 14/66/1 13/63/1 1/12/1
f 15/67/1 14/66/1 1/12/1
f 3/23/1 38/65/1 37/68/1
f 3/23/1 37/68/1 36/69/1
f 16/70/1 15/67/1 1/12/1
f 17/71/1 16/70/1 1/12/1
f 3/23/1 36/69/1 35/72/1
f 3/23/1 35/72/1 34/73/1
f 18/74/8 17/71/8 1/12/8
f 19/75/1 18/74/1 1/12/1
f 3/23/8 34/73/8 33/76/8
f 3/23/9 33/76/9 32/77/9
f 20/78/1 19/75/1 1/12/1
f 21/79/1 20/78/1 1/12/1
f 1/12/1 3/23/1 26/10/1
f 3/23/10 32/77/10 31/80/10
f 3/23/11 31/80/11 30/81/11
f 22/82/12 21/79/12 1/12/12
f 23/83/13 22/82/13 1/12/13
f 3/23/14 30/81/14 29/84/14
f 3/23/15 29/84/15 28/85/15
f 24/86/1 23/83/1 1/12/1
f 25/11/1 24/86/1 1/12/1
f 3/23/16 28/85/16 27/87/16
f 3/23/17 27/87/17 26/10/17
f 128/88/18 5/89/18 6/13/18
f 8/14/19 7/18/19 104/90/19
f 8/14/5 104/90/5 105/91/5
f 127/92/5 128/88/5 6/13/5
f 126/93/5 127/92/5 6/13/5
f 8/14/5 105/91/5 106/94/5
f 8/14/5 106/94/5 107/95/5
f 125/96/5 126/93/5 6/13/5
f 124/97/5 125/96/5 6/13/5
f 8/14/5 107/95/5 108/98/5
f 8/14/5 108/98/5 109/99/5
f 123/100/5 124/97/5 6/13/5
f 122/101/5 123/100/5 6/13/5
f 8/14/5 109/99/5 110/102/5
f 8/14/5 110/102/5 111/103/5
f 121/104/5 122/101/5 6/13/5
f 120/105/5 121/104/5 6/13/5
f 8/14/5 111/103/5 112/106/5
f 8/14/5 112/106/5 113/107/5
f 119/108/5 120/105/5 6/13/5
f 118/109/5 119/108/5 6/13/5
f 8/14/5 113/107/5 114/110/5
f 8/14/5 114/110/5 115/111/5
f 117/112/5 118/109/5 6/13/5
f 8/14/4 115/111/4 116/15/4
f 116/15/4 117/112/4 6/13/4
f 103/113/19 104/90/19 7/18/19
f 5/89/18 128/88/18 69/114/18
f 5/89/5 69/114/5 70/115/5
f 102/116/5 103/113/5 7/18/5
f 101/117/5 102/116/5 7/18/5
f 5/89/5 70/115/5 71/118/5
f 5/89/5 71/118/5 72/119/5
f 100/120/5 101/117/5 7/18/5
f 99/121/5 100/120/5 7/18/5
f 5/89/5 72/119/5 73/122/5
f 5/89/5 73/122/5 74/123/5
f 98/124/5 99/121/5 7/18/5
f 97/125/5 98/124/5 7/18/5
f 5/89/5 74/123/5 75/126/5
f 5/89/5 75/126/5 76/127/5
f 96/128/5 97/125/5 7/18/5
f 95/129/5 96/128/5 7/18/5
f 5/89/5 76/127/5 77/130/5
f 5/89/5 77/130/5 78/131/5
f 94/132/20 95/129/20 7/18/20
f 93/133/5 94/132/5 7/18/5
f 5/89/20 78/131/20 79/134/20
f 5/89/21 79/134/21 80/135/21
f 92/136/21 93/133/21 7/18/21
f 91/137/5 92/136/5 7/18/5
f 7/18/22 5/89/22 86/16/22
f 5/89/4 80/135/4 81/138/4
f 5/89/23 81/138/23 82/139/23
f 90/140/24 91/137/24 7/18/24
f 89/141/5 90/140/5 7/18/5
f 5/89/25 82/139/25 83/142/25
f 5/89/26 83/142/26 84/143/26
f 88/144/5 89/141/5 7/18/5
f 87/17/27 88/144/27 7/18/27
f 5/89/28 84/143/28 85/145/28
f 5/89/29 85/145/29 86/16/29
f 188/146/6 7/147/6 8/19/6
f 4/3/6 3/23/6 164/148/6
f 4/3/6 164/148/6 165/149/6
f 187/150/6 188/146/6 8/19/6
f 186/151/6 187/150/6 8/19/6
f 4/3/6 165/149/6 166/152/6
f 4/3/6 166/152/6 167/153/6
f 185/154/6 186/151/6 8/19/6
f 184/155/6 185/154/6 8/19/6
f 4/3/6 167/153/6 168/156/6
f 4/3/6 168/156/6 169/157/6
f 183/158/6 184/155/6 8/19/6
f 182/159/6 183/158/6 8/19/6
f 4/3/6 169/157/6 170/160/6
f 4/3/6 170/160/6 171/161/6
f 181/162/6 182/159/6 8/19/6
f 180/163/6 181/162/6 8/19/6
f 4/3/6 171/161/6 172/164/6
f 4/3/6 172/164/6 173/165/6
f 179/166/6 180/163/6 8/19/6
f 178/167/6 179/166/6 8/19/6
f 4/3/6 173/165/6 174/168/6
f 4/3/6 174/168/6 175/169/6
f 177/170/6 178/167/6 8/19/6
f 4/3/6 175/169/6 176/20/6
f 176/20/6 177/170/6 8/19/6
f 163/171/6 164/148/6 3/23/6
f 7/147/6 188/146/6 129/172/6
f 7/147/6 129/172/6 130/173/6
f 162/174/6 163/171/6 3/23/6
f 161/175/6 162/174/6 3/23/6
f 7/147/6 130/173/6 131/176/6
f 7/147/6 131/176/6 132/177/6
f 160/178/6 161/175/6 3/23/6
f 159/179/6 160/178/6 3/23/6
f 7/147/6 132/177/6 133/180/6
f 7/147/6 133/180/6 134/181/6
f 158/182/6 159/179/6 3/23/6
f 157/183/6 158/182/6 3/23/6
f 7/147/6 134/181/6 135/184/6
f 7/147/6 135/184/6 136/185/6
f 156/186/6 157/183/6 3/23/6
f 155/187/6 156/186/6 3/23/6
f 7/147/6 136/185/6 137/188/6
f 7/147/6 137/188/6 138/189/6
f 154/190/6 155/187/6 3/23/6
f 153/191/6 154/190/6 3/23/6
f 7/147/6 138/189/6 139/192/6
f 7/147/6 139/192/6 140/193/6
f 152/194/6 153/191/6 3/23/6
f 151/195/6 152/194/6 3/23/6
f 3/23/6 7/147/6 146/21/6
f 7/147/6 140/193/6 141/196/6
f 7/147/6 141/196/6 142/197/6
f 150/198/6 151/195/6 3/23/6
f 149/199/6 150/198/6 3/23/6
f 7/147/6 142/197/6 143/200/6
f 7/147/6 143/200/6 144/201/6
f 148/202/6 149/199/6 3/23/6
f 147/22/6 148/202/6 3/23/6
f 7/147/6 144/201/6 145/203/6
f 7/147/6 145/203/6 146/21/6
f 248/204/7 1/12/7 2/24/7
f 6/25/7 5/29/7 224/205/7
f 6/25/7 224/205/7 225/206/7
f 247/207/7 248/204/7 2/24/7
f 246/208/7 247/207/7 2/24/7
f 6/25/7 225/206/7 226/209/7
f 6/25/7 226/209/7 227/210/7
f 245/211/7 246/208/7 2/24/7
f 244/212/7 245/211/7 2/24/7
f 6/25/7 227/210/7 228/213/7
f 6/25/7 228/213/7 229/214/7
f 243/215/7 244/212/7 2/24/7
f 242/216/7 243/215/7 2/24/7
f 6/25/7 229/214/7 230/217/7
f 6/25/7 230/217/7 231/218/7
f 241/219/7 242/216/7 2/24/7
f 240/220/7 241/219/7 2/24/7
f 6/25/7 231/218/7 232/221/7
f 6/25/7 232/221/7 233/222/7
f 239/223/7 240/220/7 2/24/7
f 238/224/7 239/223/7 2/24/7
f 6/25/7 233/222/7 234/225/7
f 6/25/7 234/225/7 235/226/7
f 237/227/7 238/224/7 2/24/7
f 6/25/7 235/226/7 236/26/7
f 236/26/7 237/227/7 2/24/7
f 223/228/7 224/205/7 5/29/7
f 1/12/7 248/204/7 189/229/7
f 1/12/7 189/229/7 190/230/7
f 222/231/7 223/228/7 5/29/7
f 221/232/7 222/231/7 5/29/7
f 1/12/7 190/230/7 191/233/7
f 1/12/7 191/233/7 192/234/7
f 220/235/7 221/232/7 5/29/7
f 219/236/7 220/235/7 5/29/7
f 1/12/7 192/234/7 193/237/7
f 1/12/7 193/237/7 194/238/7
f 218/239/7 219/236/7 5/29/7
f 217/240/7 218/239/7 5/29/7
f 1/12/7 194/238/7 195/241/7
f 1/12/7 195/241/7 196/242/7
f 216/243/7 217/240/7 5/29/7
f 215/244/7 216/243/7 5/29/7
f 1/12/7 196/242/7 197/245/7
f 1/12/7 197/245/7 198/246/7
f 214/247/7 215/244/7 5/29/7
f 213/248/7 214/247/7 5/29/7
f 1/12/7 198/246/7 199/249/7
f 1/12/7 199/249/7 200/250/7
f 212/251/7 213/248/7 5/29/7
f 211/252/7 212/251/7 5/29/7
f 5/29/7 1/12/7 206/27/7
f 1/12/7 200/250/7 201/253/7
f 1/12/7 201/253/7 202/254/7
f 210/255/7 211/252/7 5/29/7
f 209/256/7 210/255/7 5/29/7
f 1/12/7 202/254/7 203/257/7
f 1/12/7 203/257/7 204/258/7
f 208/259/7 209/256/7 5/29/7
f 207/28/7 208/259/7 5/29/7
f 1/12/7 204/258/7 205/260/7
f 1/12/7 205/260/7 206/27/7
