# Blender v2.79 (sub 0) OBJ File: 'soba.blend'
# www.blender.org
mtllib room_test.mtl
o Cube.001_Cube.003
v 7.142726 4.896423 4.877615
v 7.142726 8.415678 4.877615
v 7.142726 4.896423 -0.848495
v 7.142726 8.415678 -0.848495
v 12.868836 6.872578 1.677772
v 12.868836 4.904007 1.677772
v 12.868836 4.904007 2.618394
v 12.868836 6.872578 2.618394
v 12.868836 8.415678 -0.848495
v 12.868836 4.896423 -0.848495
v 12.868836 4.896423 4.877615
v 12.868836 8.415678 4.877615
v 12.893163 6.872578 1.677772
v 12.893163 4.904007 1.677772
v 12.893163 4.904007 2.618394
v 12.893163 6.872578 2.618394
v 12.893163 8.415678 -0.848495
v 12.893163 4.896423 -0.848495
v 12.893163 4.896423 4.877615
v 12.893163 8.415678 4.877615
vt 1.302496 0.922624
vt 0.883470 0.052679
vt 1.302496 0.052679
vt 1.304877 0.925663
vt 1.723903 1.795608
vt 1.304877 1.795608
vt 1.726285 0.052679
vt 2.145311 0.922624
vt 1.726285 0.922624
vt 0.199300 0.922624
vt 0.881088 0.052679
vt 0.881088 0.922624
vt 1.067202 1.309468
vt 1.302496 0.925663
vt 1.301593 1.309468
vt 1.302496 1.795607
vt 1.301593 1.452373
vt 0.883470 1.795608
vt 1.067202 1.452373
vt 1.540171 0.436485
vt 1.304877 0.052679
vt 1.723903 0.052679
vt 1.723903 0.922624
vt 1.540171 0.579390
vt 1.304877 0.922624
vt 1.305781 0.579390
vt 1.729181 0.925663
vt 1.726285 1.795607
vt 1.726285 0.925663
vt 1.734459 1.998034
vt 1.731563 1.463367
vt 1.734459 1.463367
vt 1.734459 1.460329
vt 1.731563 0.925663
vt 1.734459 0.925663
vt 1.739737 1.655741
vt 1.736840 1.312507
vt 1.739737 1.312507
vt 1.736840 0.925663
vt 1.739737 1.309468
vt 1.736840 1.309468
vt 1.742118 0.925663
vt 1.745015 1.224740
vt 1.742118 1.224740
vt 0.202196 1.798646
vt 0.199299 1.941551
vt 0.199299 1.798646
vt 1.739737 1.658779
vt 1.736840 1.957856
vt 1.736840 1.658779
vt 0.204577 1.798646
vt 0.207474 1.941551
vt 0.204577 1.941551
vt 0.883470 0.922624
vt 1.723903 0.925663
vt 2.145311 0.052679
vt 0.199299 0.052679
vt 0.883470 0.925663
vt 1.305781 0.436485
vt 1.729181 1.795607
vt 1.731563 1.998034
vt 1.731563 1.460329
vt 1.736840 1.655741
vt 1.739737 0.925663
vt 1.745015 0.925663
vt 0.202196 1.941551
vt 1.739737 1.957856
vt 0.207474 1.798646
vt 1.745292 1.607948
vt -0.750842 -0.753865
vt 1.745292 -0.753865
vt -0.750841 1.607948
vn 1.0000 0.0000 0.0000
vn 0.0000 0.0000 1.0000
vn 0.0000 0.0000 -1.0000
vn 0.0000 -1.0000 0.0000
vn -1.0000 0.0000 0.0000
vn 0.0000 1.0000 0.0000
vn 0.0000 -1.0000 -0.0034
vn 0.0000 -1.0000 0.0030
vn -1.0000 0.0004 0.0000
usemtl stena
s off
f 3/1/1 2/2/1 1/3/1
f 10/4/2 4/5/2 3/6/2
f 1/7/3 12/8/3 11/9/3
f 4/10/4 12/11/4 2/12/4
f 5/13/5 10/14/5 6/15/5
f 6/15/5 11/16/5 7/17/5
f 12/18/5 5/13/5 8/19/5
f 11/16/5 8/19/5 7/17/5
f 13/20/1 18/21/1 17/22/1
f 13/20/1 20/23/1 16/24/1
f 16/24/1 19/25/1 15/26/1
f 20/27/6 9/28/6 12/29/6
f 18/30/3 9/31/3 17/32/3
f 11/33/2 20/34/2 12/35/2
f 19/36/7 7/37/7 15/38/7
f 10/39/8 14/40/8 6/41/8
f 8/42/3 15/43/3 7/44/3
f 15/45/6 6/46/6 7/47/6
f 5/48/2 14/49/2 13/50/2
f 5/51/4 16/52/4 8/53/4
f 3/1/1 4/54/1 2/2/1
f 10/4/2 9/55/2 4/5/2
f 1/7/3 2/56/3 12/8/3
f 4/10/4 9/57/4 12/11/4
f 5/13/5 9/58/5 10/14/5
f 6/15/9 10/14/9 11/16/9
f 12/18/5 9/58/5 5/13/5
f 11/16/5 12/18/5 8/19/5
f 13/20/1 14/59/1 18/21/1
f 13/20/1 17/22/1 20/23/1
f 16/24/1 20/23/1 19/25/1
f 20/27/6 17/60/6 9/28/6
f 18/30/3 10/61/3 9/31/3
f 11/33/2 19/62/2 20/34/2
f 19/36/7 11/63/7 7/37/7
f 10/39/8 18/64/8 14/40/8
f 8/42/3 16/65/3 15/43/3
f 15/45/6 14/66/6 6/46/6
f 5/48/2 6/67/2 14/49/2
f 5/51/4 13/68/4 16/52/4
usemtl tla
f 1/69/6 10/70/6 3/71/6
f 1/69/6 11/72/6 10/70/6
