# Blender v2.79 (sub 0) OBJ File: 'soba.blend'
# www.blender.org
mtllib room_canal_3_holes.mtl
o soba_kanal.002_Cube.014
v -35.514626 6.896583 13.759642
v -35.514626 10.547717 13.759642
v -35.514626 6.896583 9.248442
v -35.514626 10.547717 9.248442
v -31.003412 6.896583 13.759642
v -31.003412 10.547717 13.759642
v -31.003418 6.896583 9.248442
v -31.003418 10.547717 9.248442
v -35.514626 8.146268 13.488572
v -35.514626 7.962588 13.450955
v -35.514626 7.788560 13.390324
v -35.514626 7.625803 13.308366
v -35.514626 7.475937 13.206766
v -35.514626 7.340582 13.087214
v -35.514626 7.221358 12.951398
v -35.514626 7.119884 12.801003
v -35.514626 7.037782 12.637719
v -35.514626 6.976667 12.463232
v -35.514626 6.938163 12.279228
v -35.514626 6.923887 12.087398
v -35.514626 6.923564 12.032946
v -35.514626 6.923300 11.957120
v -35.514626 6.923095 11.863976
v -35.514626 6.922948 11.757568
v -35.514626 6.922860 11.641953
v -35.514626 6.922832 11.521190
v -35.514626 6.922860 11.399330
v -35.514626 6.922948 11.280432
v -35.514626 6.923095 11.168551
v -35.514626 6.923300 11.067743
v -35.514626 6.923564 10.982065
v -35.514626 6.923887 10.915572
v -35.514626 6.937840 10.723738
v -35.514626 6.976135 10.539733
v -35.514626 7.037134 10.365245
v -35.514626 7.119203 10.201960
v -35.514626 7.220706 10.051565
v -35.514626 7.340008 9.915750
v -35.514626 7.475471 9.796199
v -35.514626 7.625462 9.694601
v -35.514626 7.788344 9.612643
v -35.514626 7.962481 9.552013
v -35.514626 8.146239 9.514399
v -35.514626 8.337981 9.501485
v -35.514626 8.609303 9.519750
v -35.514626 8.869550 9.572949
v -35.514626 9.116337 9.658701
v -35.514626 9.347279 9.774615
v -35.514626 9.559986 9.918307
v -35.514626 9.752075 10.087392
v -35.514626 9.921160 10.279481
v -35.514626 10.064854 10.492189
v -35.514626 10.180766 10.723130
v -35.514626 10.266518 10.969917
v -35.514626 10.319717 11.230165
v -35.514626 10.337982 11.501486
v -35.514626 10.319718 11.772806
v -35.514626 10.266518 12.033053
v -35.514626 10.180766 12.279840
v -35.514626 10.064854 12.510781
v -35.514626 9.921160 12.723489
v -35.514626 9.752075 12.915579
v -35.514626 9.559986 13.084662
v -35.514626 9.347279 13.228354
v -35.514626 9.116337 13.344269
v -35.514626 8.869550 13.430020
v -35.514626 8.609303 13.483221
v -35.514626 8.337981 13.501485
v -31.003399 8.146268 13.488572
v -31.003399 7.962588 13.450955
v -31.003399 7.788560 13.390324
v -31.003399 7.625803 13.308366
v -31.003399 7.475937 13.206766
v -31.003399 7.340582 13.087214
v -31.003399 7.221358 12.951398
v -31.003399 7.119884 12.801003
v -31.003399 7.037782 12.637719
v -31.003399 6.976667 12.463232
v -31.003399 6.938163 12.279228
v -31.003399 6.923887 12.087398
v -31.003399 6.923564 12.032946
v -31.003399 6.923300 11.957120
v -31.003399 6.923095 11.863976
v -31.003399 6.922948 11.757568
v -31.003399 6.922860 11.641953
v -31.003399 6.922832 11.521190
v -31.003399 6.922860 11.399330
v -31.003399 6.922948 11.280432
v -31.003399 6.923095 11.168551
v -31.003399 6.923300 11.067743
v -31.003399 6.923564 10.982065
v -31.003399 6.923887 10.915572
v -31.003399 6.937840 10.723738
v -31.003399 6.976135 10.539733
v -31.003399 7.037134 10.365245
v -31.003399 7.119203 10.201960
v -31.003399 7.220706 10.051565
v -31.003399 7.340008 9.915750
v -31.003399 7.475471 9.796199
v -31.003399 7.625462 9.694601
v -31.003399 7.788344 9.612643
v -31.003399 7.962481 9.552013
v -31.003399 8.146239 9.514399
v -31.003399 8.337981 9.501485
v -31.003399 8.609303 9.519750
v -31.003399 8.869550 9.572949
v -31.003399 9.116337 9.658701
v -31.003399 9.347279 9.774615
v -31.003399 9.559986 9.918307
v -31.003399 9.752075 10.087392
v -31.003399 9.921160 10.279481
v -31.003399 10.064854 10.492189
v -31.003399 10.180766 10.723130
v -31.003399 10.266518 10.969917
v -31.003399 10.319717 11.230165
v -31.003399 10.337982 11.501486
v -31.003399 10.319718 11.772806
v -31.003399 10.266518 12.033053
v -31.003399 10.180766 12.279840
v -31.003399 10.064854 12.510781
v -31.003399 9.921160 12.723489
v -31.003399 9.752075 12.915579
v -31.003399 9.559986 13.084662
v -31.003399 9.347279 13.228354
v -31.003399 9.116337 13.344269
v -31.003399 8.869550 13.430020
v -31.003399 8.609303 13.483221
v -31.003399 8.337981 13.501485
v -31.274494 8.146269 9.248442
v -31.312111 7.962588 9.248442
v -31.372744 7.788561 9.248442
v -31.454702 7.625803 9.248442
v -31.556301 7.475937 9.248442
v -31.675852 7.340582 9.248442
v -31.811668 7.221358 9.248442
v -31.962063 7.119885 9.248442
v -32.125347 7.037782 9.248442
v -32.299835 6.976667 9.248442
v -32.483837 6.938163 9.248442
v -32.675671 6.923887 9.248442
v -32.730122 6.923564 9.248442
v -32.805946 6.923300 9.248442
v -32.899094 6.923095 9.248442
v -33.005501 6.922948 9.248442
v -33.121113 6.922860 9.248442
v -33.241879 6.922832 9.248442
v -33.363735 6.922860 9.248442
v -33.482635 6.922948 9.248442
v -33.594517 6.923095 9.248442
v -33.695324 6.923300 9.248442
v -33.781002 6.923564 9.248442
v -33.847496 6.923887 9.248442
v -34.039330 6.937840 9.248442
v -34.223335 6.976135 9.248442
v -34.397823 7.037134 9.248442
v -34.561108 7.119204 9.248442
v -34.711502 7.220706 9.248442
v -34.847317 7.340008 9.248442
v -34.966869 7.475471 9.248442
v -35.068466 7.625462 9.248442
v -35.150425 7.788344 9.248442
v -35.211056 7.962482 9.248442
v -35.248669 8.146239 9.248442
v -35.261581 8.337981 9.248442
v -35.243317 8.609303 9.248442
v -35.190117 8.869550 9.248442
v -35.104366 9.116337 9.248442
v -34.988453 9.347279 9.248442
v -34.844761 9.559986 9.248442
v -34.675674 9.752075 9.248442
v -34.483585 9.921160 9.248442
v -34.270878 10.064854 9.248442
v -34.039936 10.180766 9.248442
v -33.793152 10.266518 9.248442
v -33.532902 10.319717 9.248442
v -33.261581 10.337982 9.248442
v -32.990261 10.319718 9.248442
v -32.730015 10.266518 9.248442
v -32.483227 10.180766 9.248442
v -32.252285 10.064854 9.248442
v -32.039577 9.921160 9.248442
v -31.847488 9.752075 9.248442
v -31.678406 9.559986 9.248442
v -31.534712 9.347279 9.248442
v -31.418798 9.116337 9.248442
v -31.333046 8.869550 9.248442
v -31.279846 8.609303 9.248442
v -31.261583 8.337981 9.248442
vt 0.500543 -0.043281
vt 0.558125 -0.048070
vt 0.978709 0.011717
vt 0.021291 0.978709
vt 0.978709 0.021291
vt 0.978709 0.978709
vt -0.945701 1.945701
vt 0.011717 0.988283
vt 0.011717 1.945701
vt 1.945701 -0.945701
vt 0.988283 0.011716
vt 0.988283 -0.945701
vt 0.496361 -0.938818
vt 0.470731 -0.938811
vt 0.021291 -0.945701
vt 0.500543 -0.043281
vt 0.558125 -0.048070
vt 0.978709 0.011717
vt 0.496361 -0.938818
vt 0.470731 -0.938811
vt 0.021291 -0.945701
vt 0.500543 -0.043281
vt 0.558125 -0.048070
vt 0.496361 -0.938818
vt 0.470731 -0.938811
vt 0.021291 -0.945701
vt 0.021291 0.011717
vt 0.076080 -0.567731
vt 0.079956 -0.496583
vt 0.925005 -0.567731
vt 0.978709 -0.945701
vt 0.921129 -0.496584
vt 0.091247 -0.428340
vt 0.109446 -0.363627
vt 0.909838 -0.428340
vt 0.891639 -0.363627
vt 0.134047 -0.303068
vt 0.164543 -0.247291
vt 0.867039 -0.303068
vt 0.836543 -0.247291
vt 0.200428 -0.196920
vt 0.241195 -0.152582
vt 0.800658 -0.196920
vt 0.759890 -0.152582
vt 0.286338 -0.114902
vt 0.335351 -0.084507
vt 0.714747 -0.114902
vt 0.665734 -0.084507
vt 0.387727 -0.062020
vt 0.442960 -0.048070
vt 0.613358 -0.062020
vt 0.021291 0.021291
vt -0.945701 0.988284
vt 1.945701 0.011717
vt 0.078820 -0.618003
vt 0.922265 -0.618010
vt 0.914282 -0.666196
vt 0.086804 -0.666168
vt 0.099672 -0.711802
vt 0.901414 -0.711859
vt 0.884020 -0.754571
vt 0.117066 -0.754482
vt 0.138628 -0.793780
vt 0.862458 -0.793902
vt 0.837085 -0.829424
vt 0.164001 -0.829274
vt 0.192826 -0.860537
vt 0.808261 -0.860708
vt 0.776343 -0.887325
vt 0.224744 -0.887146
vt 0.259398 -0.908675
vt 0.741689 -0.908845
vt 0.704657 -0.924841
vt 0.296430 -0.924701
vt 0.335481 -0.934798
vt 0.665605 -0.934883
vt 0.624892 -0.938541
vt 0.376194 -0.938541
vt 0.387750 -0.938626
vt 0.610780 -0.938626
vt 0.592596 -0.938695
vt 0.403843 -0.938695
vt 0.423611 -0.938749
vt 0.571202 -0.938749
vt 0.547457 -0.938788
vt 0.446194 -0.938788
vt 0.522223 -0.938811
vt 0.021291 0.011717
vt 0.076080 -0.567731
vt 0.079956 -0.496583
vt 0.925005 -0.567731
vt 0.978709 -0.945701
vt 0.921129 -0.496584
vt 0.091247 -0.428340
vt 0.109446 -0.363627
vt 0.909838 -0.428340
vt 0.891639 -0.363627
vt 0.134047 -0.303068
vt 0.164543 -0.247291
vt 0.867039 -0.303068
vt 0.836543 -0.247291
vt 0.200428 -0.196920
vt 0.241195 -0.152582
vt 0.800658 -0.196920
vt 0.759890 -0.152582
vt 0.286338 -0.114902
vt 0.335351 -0.084507
vt 0.714747 -0.114902
vt 0.665734 -0.084507
vt 0.387727 -0.062020
vt 0.442960 -0.048070
vt 0.613358 -0.062020
vt 0.078820 -0.618003
vt 0.922265 -0.618010
vt 0.914282 -0.666196
vt 0.086804 -0.666168
vt 0.099672 -0.711802
vt 0.901414 -0.711859
vt 0.884020 -0.754571
vt 0.117066 -0.754482
vt 0.138628 -0.793780
vt 0.862458 -0.793902
vt 0.837085 -0.829424
vt 0.164001 -0.829274
vt 0.192826 -0.860537
vt 0.808261 -0.860708
vt 0.776343 -0.887325
vt 0.224744 -0.887146
vt 0.259398 -0.908675
vt 0.741689 -0.908845
vt 0.704657 -0.924841
vt 0.296430 -0.924701
vt 0.335481 -0.934798
vt 0.665605 -0.934883
vt 0.624892 -0.938541
vt 0.376194 -0.938541
vt 0.387750 -0.938626
vt 0.610780 -0.938626
vt 0.592596 -0.938695
vt 0.403843 -0.938695
vt 0.423611 -0.938749
vt 0.571202 -0.938749
vt 0.547457 -0.938788
vt 0.446194 -0.938788
vt 0.522223 -0.938811
vt 0.021291 0.011717
vt 0.076080 -0.567731
vt 0.079956 -0.496583
vt 0.925005 -0.567731
vt 0.921129 -0.496584
vt 0.091247 -0.428340
vt 0.109446 -0.363627
vt 0.909838 -0.428340
vt 0.891639 -0.363627
vt 0.134047 -0.303068
vt 0.164543 -0.247291
vt 0.867039 -0.303068
vt 0.836543 -0.247291
vt 0.200428 -0.196920
vt 0.241195 -0.152582
vt 0.800658 -0.196920
vt 0.759890 -0.152582
vt 0.286338 -0.114902
vt 0.335351 -0.084507
vt 0.714747 -0.114902
vt 0.665734 -0.084507
vt 0.387727 -0.062020
vt 0.442960 -0.048070
vt 0.613358 -0.062020
vt 0.078820 -0.618003
vt 0.922265 -0.618010
vt 0.914282 -0.666196
vt 0.086804 -0.666168
vt 0.099672 -0.711802
vt 0.901414 -0.711859
vt 0.884020 -0.754571
vt 0.117066 -0.754482
vt 0.138628 -0.793780
vt 0.862458 -0.793902
vt 0.837085 -0.829424
vt 0.164001 -0.829274
vt 0.192826 -0.860537
vt 0.808261 -0.860708
vt 0.776343 -0.887325
vt 0.224744 -0.887146
vt 0.259398 -0.908675
vt 0.741689 -0.908845
vt 0.704657 -0.924841
vt 0.296430 -0.924701
vt 0.335481 -0.934798
vt 0.665605 -0.934883
vt 0.624892 -0.938541
vt 0.376194 -0.938541
vt 0.387750 -0.938626
vt 0.610780 -0.938626
vt 0.592596 -0.938695
vt 0.403843 -0.938695
vt 0.423611 -0.938749
vt 0.571202 -0.938749
vt 0.547457 -0.938788
vt 0.446194 -0.938788
vt 0.522223 -0.938811
vn 1.0000 0.0002 0.0000
vn 0.0000 0.0000 -1.0000
vn 0.0000 1.0000 0.0000
vn 0.0000 -1.0000 0.0000
vn 1.0000 0.0000 0.0000
vn 1.0000 0.0001 0.0000
vn 1.0000 -0.0001 0.0000
vn 1.0000 -0.0002 0.0000
vn 1.0000 0.0018 0.0000
vn 1.0000 -0.0014 0.0000
vn 1.0000 0.0009 0.0000
vn 1.0000 -0.0010 0.0000
vn 1.0000 -0.0009 0.0000
vn 1.0000 -0.0003 0.0000
vn 1.0000 0.0000 0.0001
vn 1.0000 0.0000 -0.0001
vn 1.0000 -0.0004 -0.0000
vn 1.0000 -0.0016 -0.0000
vn 1.0000 -0.0019 -0.0000
vn 1.0000 0.0014 -0.0000
vn 1.0000 -0.0025 -0.0000
vn 1.0000 -0.0024 0.0000
vn 1.0000 -0.0013 -0.0000
usemtl Material.004
s off
f 56/1/1 55/2/1 4/3/1
f 1/4/2 6/5/2 5/6/2
f 1/7/3 7/8/3 3/9/3
f 8/10/4 2/11/4 4/12/4
f 26/13/5 25/14/5 1/15/5
f 116/16/1 115/17/1 8/18/1
f 86/19/5 85/20/5 5/21/5
f 176/22/2 175/23/2 4/3/2
f 146/24/2 145/25/2 7/26/2
f 2/27/5 1/15/5 68/28/5
f 2/27/5 68/28/5 67/29/5
f 44/30/5 3/31/5 4/3/5
f 45/32/5 44/30/5 4/3/5
f 2/27/5 67/29/5 66/33/5
f 2/27/5 66/33/5 65/34/5
f 46/35/5 45/32/5 4/3/5
f 47/36/5 46/35/5 4/3/5
f 2/27/5 65/34/5 64/37/5
f 2/27/5 64/37/5 63/38/5
f 48/39/5 47/36/5 4/3/5
f 49/40/5 48/39/5 4/3/5
f 2/27/5 63/38/5 62/41/5
f 2/27/5 62/41/5 61/42/5
f 50/43/5 49/40/5 4/3/5
f 51/44/5 50/43/5 4/3/5
f 2/27/5 61/42/5 60/45/5
f 2/27/5 60/45/5 59/46/5
f 52/47/5 51/44/5 4/3/5
f 53/48/5 52/47/5 4/3/5
f 2/27/5 59/46/5 58/49/5
f 2/27/6 58/49/6 57/50/6
f 54/51/5 53/48/5 4/3/5
f 55/2/5 54/51/5 4/3/5
f 4/3/5 2/27/5 56/1/5
f 2/27/7 57/50/7 56/1/7
f 1/4/2 2/52/2 6/5/2
f 1/7/3 5/53/3 7/8/3
f 8/10/4 6/54/4 2/11/4
f 9/55/5 68/28/5 1/15/5
f 3/31/5 44/30/5 43/56/5
f 3/31/5 43/56/5 42/57/5
f 10/58/5 9/55/5 1/15/5
f 11/59/5 10/58/5 1/15/5
f 3/31/5 42/57/5 41/60/5
f 3/31/5 41/60/5 40/61/5
f 12/62/5 11/59/5 1/15/5
f 13/63/5 12/62/5 1/15/5
f 3/31/5 40/61/5 39/64/5
f 3/31/5 39/64/5 38/65/5
f 14/66/5 13/63/5 1/15/5
f 15/67/5 14/66/5 1/15/5
f 3/31/5 38/65/5 37/68/5
f 3/31/5 37/68/5 36/69/5
f 16/70/5 15/67/5 1/15/5
f 17/71/5 16/70/5 1/15/5
f 3/31/5 36/69/5 35/72/5
f 3/31/5 35/72/5 34/73/5
f 18/74/6 17/71/6 1/15/6
f 19/75/5 18/74/5 1/15/5
f 3/31/6 34/73/6 33/76/6
f 3/31/8 33/76/8 32/77/8
f 20/78/5 19/75/5 1/15/5
f 21/79/5 20/78/5 1/15/5
f 1/15/5 3/31/5 26/13/5
f 3/31/9 32/77/9 31/80/9
f 3/31/10 31/80/10 30/81/10
f 22/82/5 21/79/5 1/15/5
f 23/83/5 22/82/5 1/15/5
f 3/31/11 30/81/11 29/84/11
f 3/31/12 29/84/12 28/85/12
f 24/86/5 23/83/5 1/15/5
f 25/14/5 24/86/5 1/15/5
f 3/31/13 28/85/13 27/87/13
f 3/31/14 27/87/14 26/13/14
f 6/88/15 5/21/15 128/89/15
f 6/88/5 128/89/5 127/90/5
f 104/91/16 7/92/16 8/18/16
f 105/93/5 104/91/5 8/18/5
f 6/88/5 127/90/5 126/94/5
f 6/88/5 126/94/5 125/95/5
f 106/96/5 105/93/5 8/18/5
f 107/97/5 106/96/5 8/18/5
f 6/88/5 125/95/5 124/98/5
f 6/88/5 124/98/5 123/99/5
f 108/100/5 107/97/5 8/18/5
f 109/101/5 108/100/5 8/18/5
f 6/88/5 123/99/5 122/102/5
f 6/88/5 122/102/5 121/103/5
f 110/104/5 109/101/5 8/18/5
f 111/105/5 110/104/5 8/18/5
f 6/88/5 121/103/5 120/106/5
f 6/88/5 120/106/5 119/107/5
f 112/108/5 111/105/5 8/18/5
f 113/109/5 112/108/5 8/18/5
f 6/88/5 119/107/5 118/110/5
f 6/88/5 118/110/5 117/111/5
f 114/112/5 113/109/5 8/18/5
f 115/17/5 114/112/5 8/18/5
f 8/18/5 6/88/5 116/16/5
f 6/88/5 117/111/5 116/16/5
f 69/113/5 128/89/5 5/21/5
f 7/92/16 104/91/16 103/114/16
f 7/92/5 103/114/5 102/115/5
f 70/116/5 69/113/5 5/21/5
f 71/117/5 70/116/5 5/21/5
f 7/92/5 102/115/5 101/118/5
f 7/92/5 101/118/5 100/119/5
f 72/120/5 71/117/5 5/21/5
f 73/121/5 72/120/5 5/21/5
f 7/92/5 100/119/5 99/122/5
f 7/92/5 99/122/5 98/123/5
f 74/124/5 73/121/5 5/21/5
f 75/125/5 74/124/5 5/21/5
f 7/92/5 98/123/5 97/126/5
f 7/92/5 97/126/5 96/127/5
f 76/128/5 75/125/5 5/21/5
f 77/129/5 76/128/5 5/21/5
f 7/92/5 96/127/5 95/130/5
f 7/92/5 95/130/5 94/131/5
f 78/132/5 77/129/5 5/21/5
f 79/133/5 78/132/5 5/21/5
f 7/92/5 94/131/5 93/134/5
f 7/92/7 93/134/7 92/135/7
f 80/136/5 79/133/5 5/21/5
f 81/137/5 80/136/5 5/21/5
f 5/21/17 7/92/17 86/19/17
f 7/92/18 92/135/18 91/138/18
f 7/92/19 91/138/19 90/139/19
f 82/140/5 81/137/5 5/21/5
f 83/141/5 82/140/5 5/21/5
f 7/92/20 90/139/20 89/142/20
f 7/92/21 89/142/21 88/143/21
f 84/144/5 83/141/5 5/21/5
f 85/20/22 84/144/22 5/21/22
f 7/92/23 88/143/23 87/145/23
f 7/92/17 87/145/17 86/19/17
f 8/146/2 7/26/2 188/147/2
f 8/146/2 188/147/2 187/148/2
f 164/149/2 3/31/2 4/3/2
f 165/150/2 164/149/2 4/3/2
f 8/146/2 187/148/2 186/151/2
f 8/146/2 186/151/2 185/152/2
f 166/153/2 165/150/2 4/3/2
f 167/154/2 166/153/2 4/3/2
f 8/146/2 185/152/2 184/155/2
f 8/146/2 184/155/2 183/156/2
f 168/157/2 167/154/2 4/3/2
f 169/158/2 168/157/2 4/3/2
f 8/146/2 183/156/2 182/159/2
f 8/146/2 182/159/2 181/160/2
f 170/161/2 169/158/2 4/3/2
f 171/162/2 170/161/2 4/3/2
f 8/146/2 181/160/2 180/163/2
f 8/146/2 180/163/2 179/164/2
f 172/165/2 171/162/2 4/3/2
f 173/166/2 172/165/2 4/3/2
f 8/146/2 179/164/2 178/167/2
f 8/146/2 178/167/2 177/168/2
f 174/169/2 173/166/2 4/3/2
f 175/23/2 174/169/2 4/3/2
f 4/3/2 8/146/2 176/22/2
f 8/146/2 177/168/2 176/22/2
f 129/170/2 188/147/2 7/26/2
f 3/31/2 164/149/2 163/171/2
f 3/31/2 163/171/2 162/172/2
f 130/173/2 129/170/2 7/26/2
f 131/174/2 130/173/2 7/26/2
f 3/31/2 162/172/2 161/175/2
f 3/31/2 161/175/2 160/176/2
f 132/177/2 131/174/2 7/26/2
f 133/178/2 132/177/2 7/26/2
f 3/31/2 160/176/2 159/179/2
f 3/31/2 159/179/2 158/180/2
f 134/181/2 133/178/2 7/26/2
f 135/182/2 134/181/2 7/26/2
f 3/31/2 158/180/2 157/183/2
f 3/31/2 157/183/2 156/184/2
f 136/185/2 135/182/2 7/26/2
f 137/186/2 136/185/2 7/26/2
f 3/31/2 156/184/2 155/187/2
f 3/31/2 155/187/2 154/188/2
f 138/189/2 137/186/2 7/26/2
f 139/190/2 138/189/2 7/26/2
f 3/31/2 154/188/2 153/191/2
f 3/31/2 153/191/2 152/192/2
f 140/193/2 139/190/2 7/26/2
f 141/194/2 140/193/2 7/26/2
f 7/26/2 3/31/2 146/24/2
f 3/31/2 152/192/2 151/195/2
f 3/31/2 151/195/2 150/196/2
f 142/197/2 141/194/2 7/26/2
f 143/198/2 142/197/2 7/26/2
f 3/31/2 150/196/2 149/199/2
f 3/31/2 149/199/2 148/200/2
f 144/201/2 143/198/2 7/26/2
f 145/25/2 144/201/2 7/26/2
f 3/31/2 148/200/2 147/202/2
f 3/31/2 147/202/2 146/24/2
