# Blender v2.79 (sub 0) OBJ File: 'kanal_raven.blend'
# www.blender.org
mtllib kanal_2_mirror.mtl
o kanal_2_mirror_CUBezierCurve.008
v -25.602186 8.311802 -18.637718
v -25.583921 8.583123 -18.637718
v -25.530722 8.843370 -18.637718
v -25.444969 9.090158 -18.637718
v -25.329056 9.321098 -18.637718
v -25.185364 9.533807 -18.637718
v -25.016279 9.725896 -18.637718
v -24.824190 9.894979 -18.637718
v -24.611481 10.038671 -18.637718
v -24.380436 10.154587 -18.639767
v -24.133753 10.240337 -18.637718
v -23.873507 10.293538 -18.637718
v -23.602184 10.311802 -18.637718
v -23.330864 10.293538 -18.637718
v -23.070618 10.240337 -18.637718
v -22.823830 10.154587 -18.637718
v -22.592890 10.038672 -18.637718
v -22.380180 9.894979 -18.637718
v -22.188091 9.725896 -18.637718
v -22.019009 9.533806 -18.637718
v -21.875317 9.321098 -18.637718
v -21.759401 9.090158 -18.637718
v -21.673651 8.843370 -18.637718
v -21.620449 8.583122 -18.637718
v -21.602186 8.311802 -18.637718
v -21.615099 8.120089 -18.637718
v -21.652716 7.936409 -18.637718
v -21.713346 7.762380 -18.637718
v -21.795305 7.599623 -18.637718
v -21.896904 7.449758 -18.637718
v -22.016457 7.314403 -18.637718
v -22.152273 7.195179 -18.637718
v -22.302668 7.093705 -18.637718
v -22.465952 7.011601 -18.637718
v -22.640438 6.950488 -18.637718
v -22.824442 6.911983 -18.637718
v -23.016272 6.897707 -18.637718
v -23.070724 6.897385 -18.637718
v -23.146551 6.897120 -18.637718
v -23.239695 6.896915 -18.637718
v -23.346102 6.896769 -18.637718
v -23.461716 6.896680 -18.637718
v -23.582481 6.896651 -18.637718
v -23.704340 6.896680 -18.637718
v -23.823238 6.896769 -18.637718
v -23.935120 6.896915 -18.637718
v -24.035927 6.897120 -18.637718
v -24.121605 6.897385 -18.637718
v -24.188099 6.897707 -18.637718
v -24.379932 6.911661 -18.637718
v -24.563938 6.949955 -18.637718
v -24.738426 7.010954 -18.637718
v -24.901711 7.093024 -18.637718
v -25.052105 7.194527 -18.637718
v -25.187922 7.313828 -18.637718
v -25.307472 7.449292 -18.637718
v -25.409069 7.599283 -18.637718
v -25.491028 7.762165 -18.637718
v -25.551657 7.936302 -18.637718
v -25.589272 8.120060 -18.637718
v -25.602081 8.311802 -27.431276
v -25.583817 8.583123 -27.431276
v -25.530617 8.843370 -27.431276
v -25.444866 9.090158 -27.431276
v -25.328951 9.321098 -27.431276
v -25.185257 9.533807 -27.431276
v -25.016174 9.725896 -27.431276
v -24.824085 9.894979 -27.431276
v -24.611378 10.038671 -27.431276
v -24.380436 10.154587 -27.431276
v -24.133648 10.240337 -27.431276
v -23.873402 10.293538 -27.431276
v -23.602081 10.311802 -27.431276
v -23.330759 10.293538 -27.431276
v -23.070513 10.240337 -27.431276
v -22.823725 10.154587 -27.431276
v -22.592785 10.038672 -27.431276
v -22.380077 9.894979 -27.431276
v -22.187988 9.725896 -27.431276
v -22.018904 9.533806 -27.431276
v -21.875210 9.321098 -27.431276
v -21.759296 9.090158 -27.431276
v -21.673546 8.843370 -27.431276
v -21.620344 8.583122 -27.431276
v -21.602081 8.311802 -27.431276
v -21.614994 8.120089 -27.431276
v -21.652611 7.936409 -27.431276
v -21.713242 7.762380 -27.431276
v -21.795200 7.599623 -27.431276
v -21.896799 7.449758 -27.431276
v -22.016350 7.314403 -27.431276
v -22.152168 7.195179 -27.431276
v -22.302563 7.093705 -27.431276
v -22.465847 7.011601 -27.431276
v -22.640335 6.950488 -27.431276
v -22.824337 6.911983 -27.431276
v -23.016167 6.897707 -27.431276
v -23.070620 6.897385 -27.431276
v -23.146446 6.897120 -27.431276
v -23.239590 6.896915 -27.431276
v -23.345997 6.896769 -27.431276
v -23.461613 6.896680 -27.431276
v -23.582376 6.896651 -27.431276
v -23.704235 6.896680 -27.431276
v -23.823133 6.896769 -27.431276
v -23.935015 6.896915 -27.431276
v -24.035822 6.897120 -27.431276
v -24.121500 6.897385 -27.431276
v -24.187994 6.897707 -27.431276
v -24.379827 6.911661 -27.431276
v -24.563833 6.949955 -27.431276
v -24.738321 7.010954 -27.431276
v -24.901606 7.093024 -27.431276
v -25.052000 7.194527 -27.431276
v -25.187817 7.313828 -27.431276
v -25.307367 7.449292 -27.431276
v -25.408964 7.599283 -27.431276
v -25.490921 7.762165 -27.431276
v -25.551552 7.936302 -27.431276
v -25.589169 8.120060 -27.431276
vt 5.376365 0.574677
vt 3.651084 0.603889
vt 3.651083 0.568106
vt 5.376497 0.523984
vt 3.651080 0.517473
vt 5.376626 0.474467
vt 3.651076 0.468013
vt 5.376752 0.425763
vt 3.651073 0.419367
vt 5.376877 0.377594
vt 3.651069 0.371254
vt 5.377001 0.329746
vt 3.651064 0.323458
vt 5.377124 0.282047
vt 3.651060 0.275809
vt 5.377247 0.234345
vt 3.651055 0.228160
vt 5.377371 0.186499
vt 3.651050 0.180364
vt 5.377496 0.138331
vt 3.651045 0.132251
vt 3.651041 0.083605
vt 5.377750 0.040111
vt 3.651035 0.034146
vt 5.377881 -0.010581
vt 3.651030 -0.016488
vt 5.378771 2.147385
vt 3.651751 2.192228
vt 3.651755 2.141598
vt 5.378661 2.097882
vt 3.651760 2.092141
vt 5.378551 2.049192
vt 3.651764 2.043498
vt 5.378444 2.001037
vt 3.651768 1.995388
vt 5.378337 1.953202
vt 3.651772 1.947595
vt 5.378231 1.905514
vt 3.651776 1.899949
vt 5.378124 1.857826
vt 3.651780 1.852303
vt 5.378018 1.809992
vt 3.651783 1.804509
vt 5.377911 1.761835
vt 3.651787 1.756399
vt 5.377802 1.713144
vt 3.651790 1.707756
vt 5.377692 1.663640
vt 3.651792 1.658299
vt 5.377579 1.612962
vt 3.651794 1.607668
vt 5.377500 1.577154
vt 3.651795 1.571894
vt 3.651796 1.536985
vt 3.651797 1.502673
vt 5.377422 1.542214
vt 5.377271 1.473913
vt 3.651797 1.468745
vt 5.377196 1.440171
vt 3.651797 1.435032
vt 3.651797 1.401407
vt 3.651796 1.367758
vt 5.377122 1.406517
vt 3.651795 1.333980
vt 5.377047 1.372841
vt 3.651794 1.299950
vt 5.376972 1.339038
vt 3.651793 1.265528
vt 5.376895 1.304987
vt 3.651793 1.230526
vt 5.376819 1.270536
vt 3.651792 1.199174
vt 5.376740 1.235516
vt 3.651727 1.183040
vt 5.376660 1.204145
vt 3.651665 1.168487
vt 5.376392 1.188269
vt 3.651606 1.149385
vt 5.376179 1.173964
vt 3.651548 1.131238
vt 5.376016 1.155101
vt 3.651491 1.107090
vt 5.375894 1.137183
vt 3.651436 1.091371
vt 5.375802 1.113253
vt 3.651382 1.066561
vt 5.375722 1.097512
vt 3.651326 1.048438
vt 5.375705 1.072675
vt 3.651269 1.027549
vt 5.375684 1.054656
vt 3.651210 1.009813
vt 5.375642 1.033962
vt 3.651149 0.994144
vt 5.375567 1.016420
vt 3.651085 0.978105
vt 5.375448 1.000944
vt 3.651086 0.945361
vt 5.375278 0.985098
vt 3.651087 0.910364
vt 5.375373 0.952327
vt 3.651087 0.875947
vt 5.375466 0.917301
vt 3.651087 0.841917
vt 5.375558 0.882848
vt 3.651088 0.808131
vt 5.375648 0.848786
vt 3.651088 0.774472
vt 5.375737 0.814968
vt 3.651088 0.740831
vt 5.375825 0.781273
vt 5.376002 0.713827
vt 3.651087 0.707098
vt 3.651087 0.673148
vt 3.651086 0.638815
vt 5.376091 0.679839
vt 5.376181 0.645465
vt 5.376272 0.610500
vt 5.377622 0.089628
vt 5.378884 2.198061
vt 5.377346 1.507870
vt 5.375914 0.747596
vn 1.0000 0.0000 0.0000
vn 0.9909 0.1342 0.0000
vn 0.9910 -0.1340 0.0000
vn 0.9643 -0.2648 0.0000
vn 0.9211 -0.3892 0.0000
vn 0.8630 -0.5052 0.0000
vn 0.7912 -0.6115 0.0000
vn 0.7071 -0.7071 0.0000
vn 0.6115 -0.7912 0.0000
vn 0.5053 -0.8629 0.0000
vn 0.5052 -0.8630 0.0000
vn 0.3892 -0.9211 0.0000
vn 0.2648 -0.9643 0.0000
vn 0.1340 -0.9910 0.0000
vn 0.0000 -1.0000 0.0000
vn -0.1340 -0.9910 0.0000
vn -0.2648 -0.9643 0.0000
vn -0.3892 -0.9211 0.0000
vn -0.5052 -0.8630 0.0000
vn -0.6115 -0.7912 0.0000
vn -0.7071 -0.7071 0.0000
vn -0.7912 -0.6115 0.0000
vn -0.8630 -0.5052 0.0000
vn -0.9211 -0.3892 0.0000
vn -0.9643 -0.2648 0.0000
vn -0.9910 -0.1340 0.0000
vn -1.0000 0.0000 0.0000
vn -0.9909 0.1342 0.0000
vn -0.9641 0.2654 0.0000
vn -0.9207 0.3902 0.0000
vn -0.8622 0.5065 0.0000
vn -0.7902 0.6128 0.0000
vn -0.7060 0.7082 0.0000
vn -0.6107 0.7918 0.0000
vn -0.5053 0.8629 0.0000
vn -0.3907 0.9205 0.0000
vn -0.2683 0.9633 0.0000
vn -0.1398 0.9902 0.0000
vn -0.0401 0.9992 0.0000
vn -0.0047 1.0000 0.0000
vn -0.0028 1.0000 0.0000
vn -0.0018 1.0000 0.0000
vn -0.0011 1.0000 0.0000
vn -0.0005 1.0000 0.0000
vn 0.0000 1.0000 0.0000
vn 0.0005 1.0000 0.0000
vn 0.0010 1.0000 0.0000
vn 0.0016 1.0000 0.0000
vn 0.0025 1.0000 0.0000
vn 0.0040 1.0000 0.0000
vn 0.0387 0.9992 0.0000
vn 0.1384 0.9904 0.0000
vn 0.2674 0.9636 0.0000
vn 0.3903 0.9207 0.0000
vn 0.5053 0.8629 0.0000
vn 0.3904 0.9207 0.0000
vn 0.6109 0.7917 0.0000
vn 0.7063 0.7079 0.0000
vn 0.7905 0.6125 0.0000
vn 0.8624 0.5062 0.0000
vn 0.9208 0.3900 0.0000
vn 0.9642 0.2652 0.0000
vn 0.9642 0.2653 0.0000
vn 0.2647 -0.9643 0.0000
usemtl Material
s 1
f 1/1/1 120/2/2 61/3/1
f 2/4/3 61/3/1 62/5/3
f 3/6/4 62/5/3 63/7/4
f 4/8/5 63/7/4 64/9/5
f 5/10/6 64/9/5 65/11/6
f 6/12/7 65/11/6 66/13/7
f 7/14/8 66/13/7 67/15/8
f 8/16/9 67/15/8 68/17/9
f 9/18/10 68/17/9 69/19/11
f 10/20/12 69/19/11 70/21/12
f 71/22/13 10/20/12 70/21/12
f 12/23/14 71/22/13 72/24/14
f 13/25/15 72/24/14 73/26/15
f 14/27/16 73/28/15 74/29/16
f 15/30/17 74/29/16 75/31/17
f 16/32/18 75/31/17 76/33/18
f 17/34/19 76/33/18 77/35/19
f 18/36/20 77/35/19 78/37/20
f 19/38/21 78/37/20 79/39/21
f 20/40/22 79/39/21 80/41/22
f 21/42/23 80/41/22 81/43/23
f 22/44/24 81/43/23 82/45/24
f 23/46/25 82/45/24 83/47/25
f 24/48/26 83/47/25 84/49/26
f 25/50/27 84/49/26 85/51/27
f 26/52/28 85/51/27 86/53/28
f 87/54/29 26/52/28 86/53/28
f 88/55/30 27/56/29 87/54/29
f 29/57/31 88/55/30 89/58/31
f 30/59/32 89/58/31 90/60/32
f 91/61/33 30/59/32 90/60/32
f 92/62/34 31/63/33 91/61/33
f 93/64/35 32/65/34 92/62/34
f 94/66/36 33/67/35 93/64/35
f 95/68/37 34/69/36 94/66/36
f 96/70/38 35/71/37 95/68/37
f 97/72/39 36/73/38 96/70/38
f 98/74/40 37/75/39 97/72/39
f 99/76/41 38/77/40 98/74/40
f 100/78/42 39/79/41 99/76/41
f 101/80/43 40/81/42 100/78/42
f 102/82/44 41/83/43 101/80/43
f 103/84/45 42/85/44 102/82/44
f 104/86/46 43/87/45 103/84/45
f 105/88/47 44/89/46 104/86/46
f 106/90/48 45/91/47 105/88/47
f 107/92/49 46/93/48 106/90/48
f 108/94/50 47/95/49 107/92/49
f 109/96/51 48/97/50 108/94/50
f 110/98/52 49/99/51 109/96/51
f 111/100/53 50/101/52 110/98/52
f 112/102/54 51/103/53 111/100/53
f 113/104/55 52/105/56 112/102/54
f 114/106/57 53/107/55 113/104/55
f 115/108/58 54/109/57 114/106/57
f 116/110/59 55/111/58 115/108/58
f 57/112/60 116/110/59 117/113/60
f 118/114/61 57/112/60 117/113/60
f 119/115/62 58/116/61 118/114/61
f 120/2/2 59/117/63 119/115/62
f 1/1/1 60/118/2 120/2/2
f 2/4/3 1/1/1 61/3/1
f 3/6/4 2/4/3 62/5/3
f 4/8/5 3/6/4 63/7/4
f 5/10/6 4/8/5 64/9/5
f 6/12/7 5/10/6 65/11/6
f 7/14/8 6/12/7 66/13/7
f 8/16/9 7/14/8 67/15/8
f 9/18/10 8/16/9 68/17/9
f 10/20/12 9/18/10 69/19/11
f 71/22/13 11/119/64 10/20/12
f 12/23/14 11/119/64 71/22/13
f 13/25/15 12/23/14 72/24/14
f 14/27/16 13/120/15 73/28/15
f 15/30/17 14/27/16 74/29/16
f 16/32/18 15/30/17 75/31/17
f 17/34/19 16/32/18 76/33/18
f 18/36/20 17/34/19 77/35/19
f 19/38/21 18/36/20 78/37/20
f 20/40/22 19/38/21 79/39/21
f 21/42/23 20/40/22 80/41/22
f 22/44/24 21/42/23 81/43/23
f 23/46/25 22/44/24 82/45/24
f 24/48/26 23/46/25 83/47/25
f 25/50/27 24/48/26 84/49/26
f 26/52/28 25/50/27 85/51/27
f 87/54/29 27/56/29 26/52/28
f 88/55/30 28/121/30 27/56/29
f 29/57/31 28/121/30 88/55/30
f 30/59/32 29/57/31 89/58/31
f 91/61/33 31/63/33 30/59/32
f 92/62/34 32/65/34 31/63/33
f 93/64/35 33/67/35 32/65/34
f 94/66/36 34/69/36 33/67/35
f 95/68/37 35/71/37 34/69/36
f 96/70/38 36/73/38 35/71/37
f 97/72/39 37/75/39 36/73/38
f 98/74/40 38/77/40 37/75/39
f 99/76/41 39/79/41 38/77/40
f 100/78/42 40/81/42 39/79/41
f 101/80/43 41/83/43 40/81/42
f 102/82/44 42/85/44 41/83/43
f 103/84/45 43/87/45 42/85/44
f 104/86/46 44/89/46 43/87/45
f 105/88/47 45/91/47 44/89/46
f 106/90/48 46/93/48 45/91/47
f 107/92/49 47/95/49 46/93/48
f 108/94/50 48/97/50 47/95/49
f 109/96/51 49/99/51 48/97/50
f 110/98/52 50/101/52 49/99/51
f 111/100/53 51/103/53 50/101/52
f 112/102/54 52/105/56 51/103/53
f 113/104/55 53/107/55 52/105/56
f 114/106/57 54/109/57 53/107/55
f 115/108/58 55/111/58 54/109/57
f 116/110/59 56/122/59 55/111/58
f 57/112/60 56/122/59 116/110/59
f 118/114/61 58/116/61 57/112/60
f 119/115/62 59/117/63 58/116/61
f 120/2/2 60/118/2 59/117/63
